<svg xmlns="http://www.w3.org/2000/svg" viewBox="0 0 1024 1024" width="1024" height="1024">
  <g fill="rgba(255,255,255,0.55)">
    <g transform="rotate(-18 512 800)">
      <rect x="470" y="300" width="26" height="95" rx="13"/>
      <rect x="499" y="300" width="26" height="95" rx="13"/>
      <rect x="528" y="300" width="26" height="95" rx="13"/>
      <rect x="468" y="380" width="88" height="72" rx="26"/>
      <rect x="496" y="440" width="32" height="384" rx="16"/>
    </g>
    <g transform="rotate(18 512 800)">
      <ellipse cx="512" cy="350" rx="52" ry="70"/>
      <rect x="496" y="440" width="32" height="384" rx="16"/>
    </g>
  </g>
  <path d="M452 396 Q512 322 572 396" stroke="#FFFFFF" stroke-width="34" fill="none" stroke-linecap="round"/>
  <rect x="356" y="388" width="312" height="86" rx="38" fill="#FFFFFF"/>
  <rect x="382" y="498" width="260" height="130" rx="38" fill="#FFFFFF"/>
  <rect x="372" y="640" width="280" height="156" rx="44" fill="#FFFFFF"/>
</svg>
